<!-- <svg width="175" height="22" viewBox="0 0 175 22" fill="none" xmlns="http://www.w3.org/2000/svg">
<path d="M10.5714 1.35498L7.12054 20.9939H0V1.35498H10.5714Z" fill="#0DBE98"/>
<path d="M164.428 20.9939L167.855 1.35498H175V20.9939H164.428Z" fill="#0DBE98"/>
<path fill-rule="evenodd" clip-rule="evenodd" d="M108.266 12.9873C108.266 5.41887 112.422 0.916748 119.373 0.916748C124.938 0.916748 128.243 4.05606 128.219 9.33693C128.219 16.9054 124.063 21.4075 117.112 21.4075C111.572 21.4075 108.266 18.2438 108.266 12.9873ZM114.877 13.1333C114.877 15.1288 115.849 16.3213 117.501 16.3213C120.102 16.3213 120.928 13.9364 121.414 11.3811C121.56 10.6267 121.633 9.96966 121.633 9.21525C121.633 7.21972 120.661 6.02726 119.008 6.02726C116.408 6.02726 115.581 8.38783 115.095 10.9674C114.95 11.7218 114.877 12.3789 114.877 13.1333Z" fill="white"/>
<path d="M34.1202 12.2572L36.0644 1.33045L42.4559 1.30612L40.6089 11.4785C40.4145 12.4762 40.3173 13.2793 40.3173 13.9364C40.3173 15.6399 41.0707 16.4673 42.626 16.4673C45.0076 16.4673 45.4208 14.7881 46.004 11.5758L47.8267 1.30612H54.2182L52.0796 13.547C51.0832 19.2659 48.337 21.3831 41.9699 21.3831C38.9321 21.3831 33.8772 20.507 33.8772 14.7151C33.8772 13.9364 33.9501 13.109 34.1202 12.2572Z" fill="white"/>
<path d="M29.017 20.9938H22.6255L23.9135 13.6444H18.3726L17.0846 20.9938H10.6931L14.1197 1.35479H20.5112L19.2475 8.38783H24.7884L26.0521 1.35479H32.4436L29.017 20.9938Z" fill="white"/>
<path fill-rule="evenodd" clip-rule="evenodd" d="M87.998 20.9938H94.3894L95.2886 15.9319H98.3021C103.867 15.9319 106.954 12.9143 106.954 7.41439C106.954 3.545 104.28 1.33045 99.5901 1.33045H91.4246L87.998 20.9938ZM97.9619 11.0891H96.1149L96.9655 6.4653H98.6909C100.1 6.4653 100.854 7.17104 100.854 8.46084C100.854 10.0913 99.7602 11.0891 97.9619 11.0891Z" fill="white"/>
<path d="M150.455 20.9938H156.846L159.374 6.61132H164.185L165.109 1.35479H148.754L147.83 6.61132H152.934L150.455 20.9938Z" fill="white"/>
<path d="M137.016 6.75733C137.016 7.70643 137.842 7.97413 139.859 8.60686C143.286 9.65329 144.962 11.6002 144.938 14.5691C144.938 20.5071 139.446 21.3831 136.165 21.3831C131.864 21.3831 129.117 19.7283 128.51 16.808L134.075 15.2992C134.44 16.3213 135.509 16.9054 136.505 16.9054C137.599 16.9054 138.231 16.37 138.231 15.5182C138.231 14.4628 137.145 14.1639 136.183 13.8992L136.141 13.8877C132.447 12.8656 130.746 10.8944 130.746 7.68209C130.746 6.10027 131.353 0.916748 139.081 0.916748C143.188 0.916748 145.57 2.32822 146.226 5.1025L140.588 6.63566C140.296 5.88125 139.543 5.37019 138.644 5.37019C137.429 5.37019 137.016 6.1246 137.016 6.75733Z" fill="white"/>
<path d="M61.8489 15.2018H67.2197L68.0946 10.2617H62.7238L63.3314 6.61131H70.8407L71.7642 1.33045H57.8634L54.4368 20.9938H60.8283L61.8489 15.2018Z" fill="white"/>
<path d="M83.9885 15.2018H78.5934L77.597 20.9938H71.2055L74.6321 1.33045H88.533L87.6095 6.61131H80.1001L79.4926 10.2617H84.8634L83.9885 15.2018Z" fill="white"/>
</svg> -->


<svg fill="#fff" width="175px" height="22px" viewBox="0 0 175 22" xmlns="http://www.w3.org/2000/svg" role="img"><title>IBM icon</title><path d="M0 16.144h4.667v.668H0zM0 14.862h4.667v.67H0zM1.33 13.583h2.003v.671H1.33zM1.33 12.305h2.003v.67H1.33zM1.33 11.025h2.003v.671H1.33zM1.33 9.744h2.003v.671H1.33zM0 8.466h4.667v.67H0zM0 7.187h4.667v.67H0zM5.332 15.532h7.177c.12-.206.212-.433.267-.67H5.333v.67zM11.95 12.305H6.667v.67h5.843a2.67 2.67 0 00-.558-.67zM6.666 11.025v.671h5.285c.223-.188.41-.414.559-.671H6.666zM12.509 8.466H5.332v.67h7.443a2.891 2.891 0 00-.266-.67zM10.303 7.187H5.332v.67h6.685a2.522 2.522 0 00-1.714-.67zM6.666 9.744h2v.671h-2zM10.667 10.415h2.092c.059-.214.09-.44.09-.671h-2.182v.671zM6.666 13.583h1.999v.671h-2zM10.667 13.583v.671h2.182c0-.23-.031-.457-.09-.671h-2.092zM5.332 16.807l4.97.007c.667 0 1.268-.257 1.717-.67H5.332v.663zM13.334 16.144h3.332v.668h-3.332zM13.334 14.862h3.332v.67h-3.332zM14.665 13.583h2v.671h-2zM14.665 12.305h2v.67h-2zM17.594 8.466h-4.26v.67h4.49zM17.152 7.187h-3.818v.669h4.048zM20.665 16.144H24v.668h-3.335zM20.665 14.862H24v.67h-3.335zM20.665 13.583h2v.671h-2zM20.665 12.305h2v.67h-2zM20.665 11.696h2v-.671h-3.811l-.188.542-.188-.542H14.665v.671h2v-.616l.213.616h3.575l.212-.616zM22.666 9.744h-3.37l-.23.671h3.6zM20.183 7.187l-.231.669H24v-.669zM18.666 16.807l.23-.663h-.461zM18.224 15.532h.884l.238-.67h-1.357zM17.775 14.254h1.782l.235-.671h-2.253zM17.327 12.975h2.679l.229-.67h-3.138zM14.665 10.415h3.602l-.231-.671h-3.371zM19.51 9.136H24v-.67h-4.262z"/></svg>